<svg width="201" height="45" viewBox="0 0 201 45" fill="none" xmlns="http://www.w3.org/2000/svg">
<path d="M18.8476 18.7221C19.4726 19.3738 19.9869 20.204 20.3906 21.2126C20.8072 22.2057 21.0155 23.4936 21.0155 25.0763C21.0155 26.7055 20.7161 28.1797 20.1171 29.4986C19.5312 30.8175 20.4268 32.7967 24.111 33.2253C27.6228 33.778 64.0358 35.0753 62.5384 35.6029C61.041 36.1305 10.9505 36.0389 9.21871 36.0389C7.30466 36.0389 5.52733 35.8294 3.88671 35.4104C2.25911 34.9758 0.963538 34.526 0 34.0605V28.8933H0.29294C1.582 29.8088 3.03382 30.5614 4.6484 31.151C6.276 31.7252 7.82548 32.0123 9.29683 32.0123C10.2343 32.0123 11.25 31.8492 12.3437 31.5235C13.4374 31.1974 14.3229 30.7166 14.9999 30.0804C15.7031 29.3821 16.2109 28.6063 16.5234 27.7528C16.8489 26.8839 17.0117 25.9141 17.0117 24.8434C17.0117 23.6176 16.8163 22.6167 16.4257 21.8409C16.0351 21.0496 15.5077 20.4133 14.8437 19.9324C14.1796 19.4669 13.3723 19.1333 12.4218 18.9315C11.4843 18.714 10.4362 18.6054 9.27731 18.6054H5.35152V14.6719H8.8476C11.1002 14.6719 12.9101 14.1831 14.2773 13.2055C15.6445 12.2125 16.328 10.7849 16.328 8.92292C16.328 8.08503 16.1523 7.34798 15.8007 6.71178C15.4622 6.07558 14.9934 5.57127 14.3945 5.19887C13.8085 4.82639 13.151 4.56269 12.4218 4.40752C11.7057 4.23682 10.8528 4.15169 9.86321 4.15169C8.84759 4.15169 7.91012 4.26789 7.05074 4.50075C6.19137 4.73361 5.37755 5.00502 4.60933 5.3154C3.98433 5.57933 3.34633 5.91293 2.69528 6.31623C2.04425 6.71979 1.56899 7.02219 1.26951 7.22393H1.01559V2.12666C1.99214 1.63013 3.28772 1.17237 4.9023 0.753401C6.51688 0.334523 8.14448 0.125 9.7851 0.125C11.3867 0.125 12.7604 0.28038 13.9062 0.590485C15.065 0.8855 16.1327 1.37415 17.1093 2.05683C18.1249 2.80167 18.8997 3.70163 19.4335 4.75675C19.9674 5.81192 20.2343 7.03775 20.2343 8.43427C20.2343 10.4049 19.7004 12.073 18.6327 13.4385C17.578 14.804 16.2369 15.6962 14.6093 16.1151V16.4642C15.2864 16.6038 16.0091 16.8596 16.7773 17.2323C17.5455 17.589 18.2356 18.0859 18.8476 18.7221Z" fill="url(#paint0_linear_24_20)"/>
<path d="M38.7896 0.03125C36.7844 0.03125 34.9289 0.434706 33.2231 1.24157C31.5304 2.04847 30.1112 3.21222 28.9653 4.73287C27.7674 6.3311 26.8559 8.25522 26.231 10.5052C25.6059 12.7396 25.2935 15.2689 25.2935 18.0929C25.2935 20.9636 25.606 23.5161 26.231 25.7505C26.869 27.985 27.7739 29.8702 28.9458 31.4065C30.1177 32.9426 31.537 34.1141 33.2036 34.921C34.8833 35.7278 36.7453 36.1314 38.7896 36.1314C40.8859 36.1314 42.7479 35.7357 44.3755 34.9443C46.0161 34.1529 47.4354 32.9736 48.6333 31.4065C49.7921 29.9013 50.6906 28.0238 51.3286 25.7738C51.9798 23.5084 52.3052 20.948 52.3052 18.0929C52.3052 16.979 52.3164 15.0579 52.2192 14.036C52.0674 12.4389 51.7373 11.8075 51.3481 10.4353C50.7231 8.18539 49.8182 6.28457 48.6333 4.73287C47.4745 3.22776 46.0617 2.07174 44.395 1.26484C42.7414 0.442489 40.8729 0.03125 38.7896 0.03125ZM38.8091 4.01134C41.7388 4.01134 44.05 5.23715 45.7427 7.68885C47.1701 9.74316 47.9955 11.252 48.2192 14.7739C48.2579 15.3828 31.4192 15.1552 29.4185 15.4954C29.689 12.2359 30.4957 9.63339 31.8364 7.68885C33.5291 5.23715 35.8534 4.01134 38.8091 4.01134ZM29.3989 15.7631C35.0721 21.5565 47.4047 26.1479 45.7036 28.5436C43.9979 30.9487 41.6997 32.1513 38.8091 32.1513C35.9185 32.1513 33.6138 30.9487 31.895 28.5436C30.1763 26.123 29.3169 22.6394 29.3169 18.0929C29.3169 17.2826 29.3445 16.5065 29.3989 15.7631Z" fill="url(#paint1_linear_24_20)"/>
<path d="M80.6833 35.4106H76.8162V4.85017H62.3045V35.4106H58.4373V2.14884L38.6212 0L80.6833 0.753655V35.4106Z" fill="url(#paint2_linear_24_20)"/>
<path d="M106.465 22.8651H90.3903C90.3903 24.4634 90.5922 25.8599 90.9958 27.0547C91.3995 28.2339 91.9529 29.2037 92.656 29.9641C93.3331 30.7089 94.1338 31.2675 95.0583 31.6399C95.9958 32.0123 97.0245 32.1985 98.1442 32.1985C99.6286 32.1985 101.119 31.8494 102.617 31.1511C104.127 30.4373 105.202 29.7391 105.84 29.0564H106.035V33.8278C104.798 34.4485 103.535 34.9683 102.246 35.3872C100.957 35.8062 99.6027 36.0157 98.1834 36.0157C94.5636 36.0157 91.7381 34.8519 89.7069 32.5243C87.6756 30.1813 86.66 26.8607 86.66 22.5625C86.66 18.3109 87.6301 14.936 89.5701 12.4378C91.5233 9.93955 94.0884 8.69043 97.2654 8.69043C100.208 8.69043 102.474 9.71454 104.062 11.7628C105.664 13.811 106.465 16.7205 106.465 20.491L106.465 22.8651ZM102.89 19.5135C102.878 17.217 102.389 15.4403 101.425 14.1834C100.475 12.9266 99.0232 12.2982 97.07 12.2982C95.1039 12.2982 93.5349 12.9886 92.363 14.3696C91.2041 15.7506 90.5466 17.4652 90.3903 19.5135H102.89Z" fill="url(#paint3_linear_24_20)"/>
<path d="M131.23 22.0971C131.23 24.2074 130.976 26.1392 130.468 27.8926C129.961 29.6305 129.244 31.1046 128.32 32.3149C127.461 33.4632 126.445 34.3554 125.273 34.9916C124.114 35.6123 122.884 35.9226 121.582 35.9226C120.449 35.9226 119.42 35.7752 118.496 35.4803C117.584 35.1854 116.653 34.7277 115.703 34.1071V44.9999H112.031V9.41199H115.703V12.1352C116.679 11.1576 117.773 10.343 118.984 9.69129C120.208 9.02406 121.51 8.69043 122.89 8.69043C125.52 8.69043 127.565 9.87747 129.023 12.2516C130.494 14.6101 131.23 17.892 131.23 22.0971ZM127.441 22.2133C127.441 19.0789 126.992 16.7358 126.093 15.1842C125.195 13.6325 123.815 12.8566 121.953 12.8566C120.898 12.8566 119.837 13.1282 118.769 13.6713C117.701 14.2143 116.679 14.9281 115.703 15.8126V30.5459C116.744 31.1045 117.636 31.4846 118.379 31.6863C119.134 31.8881 119.987 31.989 120.937 31.989C122.981 31.989 124.576 31.1666 125.722 29.5218C126.868 27.8771 127.441 25.4408 127.441 22.2133Z" fill="url(#paint4_linear_24_20)"/>
<path d="M153.281 33.7816C151.783 34.6195 150.494 35.1936 149.414 35.5039C148.346 35.8298 147.278 35.9927 146.21 35.9927C144.622 35.9927 143.164 35.7211 141.835 35.178C140.507 34.6194 139.368 33.7816 138.418 32.6643C137.467 31.5471 136.725 30.1351 136.191 28.4282C135.67 26.7213 135.41 24.7274 135.41 22.4465C135.41 18.3034 136.373 14.9984 138.3 12.5312C140.227 10.0485 142.864 8.80713 146.21 8.80713C147.473 8.80713 148.71 9.01663 149.921 9.4356C151.145 9.85454 152.265 10.3666 153.281 10.9717V15.8363H153.066C151.855 14.7346 150.657 13.9199 149.472 13.3924C148.3 12.8648 147.161 12.601 146.054 12.601C143.88 12.601 142.194 13.47 140.996 15.2079C139.811 16.9457 139.218 19.3586 139.218 22.4465C139.218 25.5343 139.811 27.9317 140.996 29.6385C142.181 31.3454 143.867 32.1989 146.054 32.1989C146.823 32.1989 147.584 32.0825 148.34 31.8498C149.108 31.6171 149.804 31.3145 150.429 30.942C150.924 30.6471 151.432 30.298 151.953 29.8947C152.487 29.4757 152.858 29.1654 153.066 28.9637H153.281V33.7816Z" fill="url(#paint5_linear_24_20)"/>
<path d="M176.913 22.4229C176.913 26.659 176.002 30.0029 174.179 32.4545C172.356 34.9062 169.915 36.1321 166.855 36.1321C163.769 36.1321 161.315 34.9062 159.492 32.4545C157.682 30.0029 156.777 26.659 156.777 22.4229C156.777 18.1868 157.682 14.8429 159.492 12.3912C161.315 9.92404 163.769 8.69043 166.855 8.69043C169.915 8.69043 172.356 9.92404 174.179 12.3912C176.002 14.8429 176.913 18.1868 176.913 22.4229ZM173.124 22.4229C173.124 19.0557 172.571 16.5575 171.464 14.9283C170.358 13.2835 168.821 12.4611 166.855 12.4611C164.863 12.4611 163.313 13.2835 162.207 14.9283C161.113 16.5575 160.566 19.0557 160.566 22.4229C160.566 25.6814 161.119 28.1564 162.226 29.8477C163.333 31.5235 164.876 32.3614 166.855 32.3614C168.808 32.3614 170.338 31.5313 171.445 29.871C172.565 28.1952 173.124 25.7125 173.124 22.4229Z" fill="url(#paint6_linear_24_20)"/>
<path d="M200.859 35.4106H197.187V23.7031H186.269V35.4106H182.597V9.41211H186.269V19.9326H197.187V9.41211H200.859V35.4106Z" fill="url(#paint7_linear_24_20)"/>
<path d="M38.3242 15.1875C38.2399 10.1881 38.9145 11.1428 39.041 11.1428C39.1675 11.1428 43.5734 13.6299 42.5404 11.6704C41.5075 9.71082 37.1859 8.83154 37.1859 8.83154C37.1859 8.83154 31.0935 8.12813 33.6443 10.565C36.1951 13.0018 37.4178 11.1177 37.4178 11.1177C37.4178 11.1177 37.8605 12.3109 36.9329 15.1749C36.8731 15.3596 37.3729 15.342 37.4934 15.3258C38.287 15.219 38.3242 15.1875 38.3242 15.1875Z" fill="#004C00" stroke="black" stroke-width="0.188976"/>
<defs>
<linearGradient id="paint0_linear_24_20" x1="0" y1="22.4999" x2="200.859" y2="22.4999" gradientUnits="userSpaceOnUse">
<stop stop-color="#006500"/>
<stop offset="1"/>
</linearGradient>
<linearGradient id="paint1_linear_24_20" x1="1.49037e-05" y1="22.4997" x2="200.859" y2="22.4997" gradientUnits="userSpaceOnUse">
<stop stop-color="#006500"/>
<stop offset="1"/>
</linearGradient>
<linearGradient id="paint2_linear_24_20" x1="-7.21488e-06" y1="22.5" x2="200.859" y2="22.5" gradientUnits="userSpaceOnUse">
<stop stop-color="#006500"/>
<stop offset="1"/>
</linearGradient>
<linearGradient id="paint3_linear_24_20" x1="7.06798e-05" y1="22.4999" x2="200.859" y2="22.4999" gradientUnits="userSpaceOnUse">
<stop stop-color="#006500"/>
<stop offset="1"/>
</linearGradient>
<linearGradient id="paint4_linear_24_20" x1="-1.72791e-05" y1="22.4999" x2="200.859" y2="22.4999" gradientUnits="userSpaceOnUse">
<stop stop-color="#006500"/>
<stop offset="1"/>
</linearGradient>
<linearGradient id="paint5_linear_24_20" x1="0.000166551" y1="22.5002" x2="200.859" y2="22.5002" gradientUnits="userSpaceOnUse">
<stop stop-color="#006500"/>
<stop offset="1"/>
</linearGradient>
<linearGradient id="paint6_linear_24_20" x1="-2.15172e-06" y1="22.4999" x2="200.859" y2="22.4999" gradientUnits="userSpaceOnUse">
<stop stop-color="#006500"/>
<stop offset="1"/>
</linearGradient>
<linearGradient id="paint7_linear_24_20" x1="0.000111923" y1="22.5" x2="200.859" y2="22.5" gradientUnits="userSpaceOnUse">
<stop stop-color="#006500"/>
<stop offset="1"/>
</linearGradient>
</defs>
</svg>
